<?xml version="1.0" encoding="UTF-8"?>
<svg id="Layer_1" xmlns="http://www.w3.org/2000/svg" version="1.1" viewBox="0 0 273.32 113.44">
  <defs>
    <style>
      .st0 {
        fill: #fff;
      }

      .st0, .st1, .st2 {
        stroke-miterlimit: 10;
      }

      .st0, .st2 {
        stroke: #d4af37;
        stroke-width: 2.5px;
      }

      .st1 {
        stroke: #000;
        stroke-width: 2px;
      }

      .st1, .st2 {
        fill: none;
      }

      .st3 {
        fill: #d4af37;
      }
    </style>
  </defs>
  <path class="st1" d="M286.81-71.86"/>
  <path class="st1" d="M251.87-265.48"/>
  <path class="st1" d="M-61.62-198.84"/>
  <path class="st1" d="M-.72-280.3"/>
  <g>
    <path class="st3" d="M147.17,59.52c7.6,0,13.78,6.18,13.78,13.78s-6.18,13.78-13.78,13.78h-21c-7.6,0-13.78-6.18-13.78-13.78s6.18-13.78,13.78-13.78h21M147.17,57.02h-21c-8.99,0-16.28,7.29-16.28,16.28h0c0,8.99,7.29,16.28,16.28,16.28h21c8.99,0,16.28-7.29,16.28-16.28h0c0-8.99-7.29-16.28-16.28-16.28h0Z"/>
    <line class="st0" x1="152.41" y1="73.3" x2="120.93" y2="73.3"/>
    <path class="st2" d="M128.14,101.79c-15.74,0-28.49-12.76-28.49-28.49,0-15.74,12.76-28.49,28.49-28.49"/>
    <line class="st0" x1="136.67" y1="113.76" x2="136.67" y2="100.76"/>
    <line class="st0" x1="136.67" y1="45.78" x2="136.67" y2="32.78"/>
    <path class="st2" d="M145.2,44.81c15.74,0,28.49,12.76,28.49,28.49s-12.76,28.49-28.49,28.49"/>
    <path class="st2" d="M144.75,33.91c21.76,0,39.39,17.64,39.39,39.39,0,21.76-17.64,39.39-39.39,39.39"/>
    <path class="st2" d="M128.14,112.69c-21.76,0-39.39-17.64-39.39-39.39,0-21.76,17.64-39.39,39.39-39.39"/>
    <line class="st0" x1="157.41" y1="23.53" x2="115.93" y2="23.53"/>
    <line class="st0" x1="149.41" y1="12.29" x2="123.93" y2="12.29"/>
    <polyline class="st2" points="157.41 3.05 115.93 3.05 157.18 3.05 115.71 3.05 74.36 49.78 -136.3 49.78"/>
    <line class="st2" x1="117.77" y1="-13.51" x2="117.77" y2="-13.51"/>
    <polyline class="st2" points="99.65 1.48 88.31 14.29 -122.35 14.29"/>
    <line class="st2" x1="80.21" y1="1.48" x2="-140.23" y2="1.48"/>
    <line class="st0" x1=".02" y1="40.06" x2=".02" y2="25"/>
    <polyline class="st2" points="9.6 38.81 68.88 38.81 80.21 25.99 9.6 25.99"/>
    <polyline class="st2" points="-9.55 38.81 -68.83 38.81 -80.17 25.99 -9.55 25.99"/>
    <polyline class="st2" points="40.88 74.83 29.55 62.02 -29.74 62.02 29.78 62.02 -29.5 62.02 -40.83 74.83"/>
    <line class="st0" x1="20.76" y1="74.83" x2="-20.71" y2="74.83"/>
    <line class="st0" x1=".02" y1="97.64" x2=".02" y2="112.69"/>
    <polyline class="st2" points="9.89 98.76 46.12 98.76 57.45 111.57 9.6 111.57"/>
    <polyline class="st2" points="-9.85 98.76 -46.07 98.76 -57.41 111.57 -9.55 111.57"/>
    <polyline class="st2" points="-124.37 112.37 -74.04 112.37 -53.5 89.15 53.97 89.15 -53.93 89.15 53.54 89.15 74.09 112.37 88.74 112.37"/>
    <polyline class="st2" points="48.97 62.02 80.21 101.79 80.21 62.02 64.59 62.02 71.19 70.31"/>
    <polyline class="st2" points="-48.92 62.02 -80.17 101.79 -80.17 62.02 -64.54 62.02 -71.14 70.31"/>
    <line class="st2" x1="297.18" y1="1.3" x2="297.18" y2="1.3"/>
    <path class="st0" d="M136.67,113.76"/>
    <polyline class="st2" points="115.93 3.05 157.41 3.05 116.16 3.05 157.63 3.05 198.98 49.78 409.64 49.78"/>
    <line class="st2" x1="155.57" y1="-13.51" x2="155.57" y2="-13.51"/>
    <polyline class="st2" points="173.69 1.48 185.03 14.29 395.69 14.29"/>
    <line class="st2" x1="193.13" y1="1.48" x2="413.57" y2="1.48"/>
    <line class="st0" x1="273.32" y1="40.06" x2="273.32" y2="25"/>
    <polyline class="st2" points="263.74 38.81 204.46 38.81 193.13 25.99 263.74 25.99"/>
    <polyline class="st2" points="282.89 38.81 342.17 38.81 353.51 25.99 282.89 25.99"/>
    <polyline class="st2" points="232.46 74.83 243.79 62.02 303.08 62.02 243.56 62.02 302.84 62.02 314.17 74.83"/>
    <line class="st0" x1="252.58" y1="74.83" x2="294.05" y2="74.83"/>
    <line class="st0" x1="273.32" y1="97.64" x2="273.32" y2="112.69"/>
    <polyline class="st2" points="263.45 98.76 227.22 98.76 215.89 111.57 263.74 111.57"/>
    <polyline class="st2" points="283.19 98.76 319.41 98.76 330.75 111.57 282.89 111.57"/>
    <polyline class="st2" points="397.71 112.37 347.38 112.37 326.84 89.15 219.37 89.15 327.27 89.15 219.8 89.15 199.25 112.37 184.6 112.37"/>
    <polyline class="st2" points="224.37 62.02 193.13 101.79 193.13 62.02 208.75 62.02 202.15 70.31"/>
    <polyline class="st2" points="322.26 62.02 353.51 101.79 353.51 62.02 337.88 62.02 344.48 70.31"/>
  </g>
</svg>
