<svg width="24" height="24" viewBox="0 0 24 24" fill="none"
    xmlns="http://www.w3.org/2000/svg">
    <g clip-path="url(#clip0_16_680)">
        <path d="M13.2991 3.14795L21.9331 18.1019C22.0647 18.33 22.134 18.5886 22.134 18.8519C22.134 19.1152 22.0647 19.3739 21.9331 19.6019C21.8014 19.83 21.6121 20.0193 21.384 20.151C21.156 20.2826 20.8974 20.3519 20.6341 20.3519H3.36605C3.10275 20.3519 2.84409 20.2826 2.61606 20.151C2.38804 20.0193 2.19869 19.83 2.06704 19.6019C1.93539 19.3739 1.86609 19.1152 1.86609 18.8519C1.86609 18.5886 1.9354 18.33 2.06705 18.1019L10.7011 3.14795C11.2781 2.14795 12.7211 2.14795 13.2991 3.14795ZM12.0001 4.89795L4.23205 18.3519H19.7681L12.0001 4.89795ZM12.0001 14.9999C12.2653 14.9999 12.5196 15.1053 12.7072 15.2928C12.8947 15.4804 13.0001 15.7347 13.0001 15.9999C13.0001 16.2652 12.8947 16.5195 12.7072 16.7071C12.5196 16.8946 12.2653 16.9999 12.0001 16.9999C11.7348 16.9999 11.4805 16.8946 11.2929 16.7071C11.1054 16.5195 11.0001 16.2652 11.0001 15.9999C11.0001 15.7347 11.1054 15.4804 11.2929 15.2928C11.4805 15.1053 11.7348 14.9999 12.0001 14.9999ZM12.0001 7.99995C12.2653 7.99995 12.5196 8.10531 12.7072 8.29284C12.8947 8.48038 13.0001 8.73473 13.0001 8.99995V12.9999C13.0001 13.2652 12.8947 13.5195 12.7072 13.7071C12.5196 13.8946 12.2653 13.9999 12.0001 13.9999C11.7348 13.9999 11.4805 13.8946 11.2929 13.7071C11.1054 13.5195 11.0001 13.2652 11.0001 12.9999V8.99995C11.0001 8.73473 11.1054 8.48038 11.2929 8.29284C11.4805 8.10531 11.7348 7.99995 12.0001 7.99995Z" fill="#111111"/>
    </g>
    <defs>
        <clipPath id="clip0_16_680">
            <rect width="24" height="24" fill="white"/>
        </clipPath>
    </defs>
</svg>
