<svg width="24" height="25" viewBox="0 0 24 25" fill="none"
    xmlns="http://www.w3.org/2000/svg">
    <path d="M19.53 6.42296C19.819 6.69618 19.9877 7.07298 19.9989 7.47054C20.0102 7.86809 19.8631 8.25383 19.59 8.54296L11.09 17.543C10.9522 17.6886 10.7867 17.8051 10.6031 17.8856C10.4196 17.9662 10.2218 18.0091 10.0213 18.0119C9.82091 18.0147 9.62195 17.9773 9.43623 17.9019C9.2505 17.8265 9.08177 17.7147 8.94 17.573L4.44 13.073C4.17504 12.7886 4.03079 12.4125 4.03765 12.0239C4.0445 11.6353 4.20193 11.2645 4.47675 10.9897C4.75158 10.7149 5.12235 10.5575 5.51095 10.5506C5.89956 10.5438 6.27565 10.688 6.56 10.953L9.97 14.361L17.41 6.48296C17.6832 6.19395 18.06 6.02528 18.4576 6.01403C18.8551 6.00278 19.2409 6.14987 19.53 6.42296Z" fill="#43B984"/>
</svg>
