<svg width="24" height="24" viewBox="0 0 24 24" fill="none"
    xmlns="http://www.w3.org/2000/svg">
    <path d="M12 16.0065C12.5304 16.0065 13.0391 16.2172 13.4142 16.5923C13.7893 16.9673 14 17.476 14 18.0065C14 18.5369 13.7893 19.0456 13.4142 19.4207C13.0391 19.7958 12.5304 20.0065 12 20.0065C11.4696 20.0065 10.9609 19.7958 10.5858 19.4207C10.2107 19.0456 10 18.5369 10 18.0065C10 17.476 10.2107 16.9673 10.5858 16.5923C10.9609 16.2172 11.4696 16.0065 12 16.0065ZM12 10.0065C12.5304 10.0065 13.0391 10.2172 13.4142 10.5923C13.7893 10.9673 14 11.476 14 12.0065C14 12.5369 13.7893 13.0456 13.4142 13.4207C13.0391 13.7958 12.5304 14.0065 12 14.0065C11.4696 14.0065 10.9609 13.7958 10.5858 13.4207C10.2107 13.0456 10 12.5369 10 12.0065C10 11.476 10.2107 10.9673 10.5858 10.5923C10.9609 10.2172 11.4696 10.0065 12 10.0065ZM12 4.00647C12.5304 4.00647 13.0391 4.21718 13.4142 4.59226C13.7893 4.96733 14 5.47604 14 6.00647C14 6.5369 13.7893 7.04561 13.4142 7.42068C13.0391 7.79576 12.5304 8.00647 12 8.00647C11.4696 8.00647 10.9609 7.79576 10.5858 7.42068C10.2107 7.04561 10 6.5369 10 6.00647C10 5.47604 10.2107 4.96733 10.5858 4.59226C10.9609 4.21718 11.4696 4.00647 12 4.00647Z" fill="#111111"/>
</svg>
