<svg width="16" height="17" viewBox="0 0 16 17" fill="none" xmlns="http://www.w3.org/2000/svg">
<path d="M7.99992 10.5129C8.53992 10.5129 8.99992 10.3129 9.40659 9.91953C9.79992 9.51286 9.99992 9.05286 9.99992 8.51286C9.99992 7.97286 9.79992 7.51286 9.40659 7.10619C8.99992 6.71286 8.53992 6.51286 7.99992 6.51286C7.45992 6.51286 6.99992 6.71286 6.59325 7.10619C6.19992 7.51286 5.99992 7.97286 5.99992 8.51286C5.99992 9.05286 6.19992 9.51286 6.59325 9.91953C6.99992 10.3129 7.45992 10.5129 7.99992 10.5129ZM7.99992 1.84619C9.83325 1.84619 11.3999 2.51286 12.6999 3.81286C13.9999 5.11286 14.6666 6.67952 14.6666 8.51286V9.47952C14.6666 10.1462 14.4333 10.7129 13.9999 11.1795C13.5333 11.6262 12.9999 11.8462 12.3333 11.8462C11.5333 11.8462 10.8733 11.5129 10.3733 10.8462C9.70659 11.5129 8.91992 11.8462 7.99992 11.8462C7.08659 11.8462 6.29992 11.5129 5.63992 10.8729C4.99992 10.2129 4.66659 9.43286 4.66659 8.51286C4.66659 7.59952 4.99992 6.81286 5.63992 6.15286C6.29992 5.51286 7.08659 5.17952 7.99992 5.17952C8.91992 5.17952 9.69992 5.51286 10.3599 6.15286C10.9999 6.81286 11.3333 7.59952 11.3333 8.51286V9.47952C11.3333 9.75286 11.4399 9.99286 11.6399 10.1995C11.8399 10.4062 12.0733 10.5129 12.3333 10.5129C12.6133 10.5129 12.8466 10.4062 13.0466 10.1995C13.2466 9.99286 13.3333 9.75286 13.3333 9.47952V8.51286C13.3333 7.05286 12.8199 5.79952 11.7666 4.74619C10.7133 3.69286 9.45992 3.17952 7.99992 3.17952C6.53992 3.17952 5.28659 3.69286 4.23325 4.74619C3.17992 5.79952 2.66659 7.05286 2.66659 8.51286C2.66659 9.97286 3.17992 11.2262 4.23325 12.2795C5.28659 13.3329 6.53992 13.8462 7.99992 13.8462H11.3333V15.1795H7.99992C6.16659 15.1795 4.59992 14.5129 3.29992 13.2129C1.99992 11.9129 1.33325 10.3462 1.33325 8.51286C1.33325 6.67952 1.99992 5.11286 3.29992 3.81286C4.59992 2.51286 6.16659 1.84619 7.99992 1.84619Z" fill="#003366"/>
</svg>
