<svg width="16" height="16" viewBox="0 0 16 16" fill="none" xmlns="http://www.w3.org/2000/svg">
<g clip-path="url(#clip0_footer_phone)">
<path d="M14.6571 11.2728V13.2715C14.6579 13.457 14.6199 13.6407 14.5455 13.8107C14.4712 13.9807 14.3622 14.1333 14.2254 14.2588C14.0887 14.3842 13.9273 14.4797 13.7515 14.5391C13.5758 14.5986 13.3895 14.6207 13.2047 14.604C11.1546 14.3812 9.18533 13.6806 7.45513 12.5586C5.84539 11.5357 4.48062 10.171 3.45773 8.56122C2.33178 6.82315 1.63108 4.8443 1.41239 2.78497C1.39574 2.60074 1.41764 2.41505 1.47668 2.23974C1.53573 2.06443 1.63063 1.90334 1.75534 1.76672C1.88006 1.63009 2.03186 1.52093 2.20107 1.44619C2.37029 1.37145 2.55321 1.33276 2.73819 1.33258H4.73689C5.06022 1.3294 5.37367 1.4439 5.61883 1.65473C5.86398 1.86556 6.02411 2.15834 6.06936 2.47851C6.15372 3.11813 6.31017 3.74617 6.53572 4.35062C6.62536 4.58908 6.64476 4.84824 6.59163 5.09739C6.53849 5.34654 6.41505 5.57523 6.23592 5.75637L5.3898 6.60249C6.33822 8.27044 7.71926 9.65147 9.3872 10.5999L10.2333 9.75377C10.4145 9.57465 10.6432 9.4512 10.8923 9.39807C11.1415 9.34493 11.4006 9.36433 11.6391 9.45397C12.2435 9.67952 12.8716 9.83597 13.5112 9.92033C13.8348 9.96599 14.1304 10.129 14.3417 10.3784C14.553 10.6277 14.6652 10.946 14.6571 11.2728Z" stroke="currentColor" stroke-width="1.33247" stroke-linecap="round" stroke-linejoin="round"/>
</g>
<defs>
<clipPath id="clip0_footer_phone">
<rect width="15.9896" height="15.9896" fill="white"/>
</clipPath>
</defs>
</svg>
