<svg width="16" height="17" viewBox="0 0 16 17" fill="none" xmlns="http://www.w3.org/2000/svg">
<path d="M7.77493 3.78787L9.02493 2.53787C9.34995 2.21285 9.73581 1.95503 10.1605 1.77913C10.5851 1.60323 11.0403 1.5127 11.4999 1.5127C11.9596 1.5127 12.4147 1.60323 12.8394 1.77913C13.2641 1.95503 13.6499 2.21285 13.9749 2.53787C14.3 2.8629 14.5578 3.24875 14.7337 3.67341C14.9096 4.09807 15.0001 4.55322 15.0001 5.01287C15.0001 5.47252 14.9096 5.92767 14.7337 6.35233C14.5578 6.777 14.3 7.16285 13.9749 7.48787L11.4749 9.98787C11.1499 10.3129 10.7641 10.5708 10.3394 10.7467C9.91475 10.9226 9.45959 11.0131 8.99993 11.0131C8.54028 11.0131 8.08512 10.9226 7.66046 10.7467C7.2358 10.5708 6.84994 10.3129 6.52493 9.98787C6.39229 9.84573 6.32003 9.65763 6.32339 9.46324C6.32675 9.26885 6.40546 9.08335 6.54293 8.94587C6.68041 8.8084 6.8659 8.72969 7.0603 8.72633C7.25469 8.72297 7.44279 8.79523 7.58493 8.92787C7.77068 9.11383 7.99126 9.26134 8.23405 9.36199C8.47685 9.46264 8.7371 9.51445 8.99993 9.51445C9.26276 9.51445 9.52302 9.46264 9.76581 9.36199C10.0086 9.26134 10.2292 9.11383 10.4149 8.92787L12.9149 6.42787C13.272 6.04893 13.4673 5.5458 13.4596 5.02522C13.4518 4.50463 13.2416 4.00755 12.8734 3.6394C12.5053 3.27125 12.0082 3.061 11.4876 3.05325C10.967 3.0455 10.4639 3.24085 10.0849 3.59787L8.83493 4.84787C8.69279 4.98052 8.50469 5.05278 8.3103 5.04942C8.1159 5.04606 7.93041 4.96735 7.79293 4.82987C7.65546 4.69239 7.57675 4.5069 7.57339 4.31251C7.57003 4.11812 7.64229 3.93002 7.77493 3.78787ZM3.08493 13.4279C3.27068 13.6138 3.49126 13.7613 3.73405 13.862C3.97685 13.9626 4.2371 14.0144 4.49993 14.0144C4.76277 14.0144 5.02302 13.9626 5.26581 13.862C5.50861 13.7613 5.72919 13.6138 5.91493 13.4279L7.16493 12.1779C7.30708 12.0452 7.49518 11.973 7.68957 11.9763C7.88396 11.9797 8.06945 12.0584 8.20693 12.1959C8.34441 12.3334 8.42312 12.5188 8.42648 12.7132C8.42984 12.9076 8.35758 13.0957 8.22493 13.2379L6.97493 14.4879C6.64991 14.8129 6.26406 15.0707 5.83939 15.2466C5.41473 15.4225 4.95958 15.5131 4.49993 15.5131C4.04028 15.5131 3.58514 15.4225 3.16047 15.2466C2.73581 15.0707 2.34996 14.8129 2.02493 14.4879C1.69991 14.1629 1.44209 13.777 1.26619 13.3523C1.09029 12.9277 0.999756 12.4725 0.999756 12.0129C0.999756 11.5532 1.09029 11.0981 1.26619 10.6734C1.44209 10.2488 1.69991 9.86289 2.02493 9.53787L4.52493 7.03787C4.84994 6.71283 5.2358 6.45499 5.66046 6.27908C6.08512 6.10316 6.54028 6.01262 6.99993 6.01262C7.45959 6.01262 7.91475 6.10316 8.33941 6.27908C8.76407 6.45499 9.14992 6.71283 9.47493 7.03787C9.60758 7.18002 9.67984 7.36812 9.67648 7.56251C9.67312 7.7569 9.59441 7.94239 9.45693 8.07987C9.31945 8.21735 9.13396 8.29606 8.93957 8.29942C8.74518 8.30278 8.55708 8.23052 8.41493 8.09787C8.22919 7.91192 8.00861 7.7644 7.76581 7.66375C7.52302 7.56311 7.26276 7.5113 6.99993 7.5113C6.7371 7.5113 6.47685 7.56311 6.23405 7.66375C5.99126 7.7644 5.77068 7.91192 5.58493 8.09787L3.08493 10.5979C2.89898 10.7836 2.75146 11.0042 2.65081 11.247C2.55017 11.4898 2.49836 11.75 2.49836 12.0129C2.49836 12.2757 2.55017 12.536 2.65081 12.7788C2.75146 13.0215 2.89898 13.2421 3.08493 13.4279Z" fill="#003366"/>
</svg>
