<svg width="16" height="17" viewBox="0 0 16 17" fill="none"
    xmlns="http://www.w3.org/2000/svg">
    <g clip-path="url(#clip0_1_579)">
        <path d="M5.15306 1.28166C4.91244 0.700412 4.27806 0.391037 3.67181 0.556662L0.921814 1.30666C0.378064 1.45666 -6.10352e-05 1.95041 -6.10352e-05 2.51291C-6.10352e-05 10.2442 6.26869 16.5129 13.9999 16.5129C14.5624 16.5129 15.0562 16.1348 15.2062 15.591L15.9562 12.841C16.1218 12.2348 15.8124 11.6004 15.2312 11.3598L12.2312 10.1098C11.7218 9.89729 11.1312 10.0442 10.7843 10.4723L9.52181 12.0129C7.32181 10.9723 5.54056 9.19104 4.49994 6.99104L6.04056 5.73166C6.46869 5.38166 6.61556 4.79416 6.40306 4.28479L5.15306 1.28479V1.28166Z" fill="#003366"/>
    </g>
    <defs>
        <clipPath id="clip0_1_579">
            <rect width="16" height="16" fill="white" transform="translate(-6.10352e-05 0.512695)"/>
        </clipPath>
    </defs>
</svg>
