<svg width="264" height="170" viewBox="0 0 264 170" fill="none" xmlns="http://www.w3.org/2000/svg">
<path d="M186.972 13.2417H22.7057C20.6205 13.2417 18.9301 14.9424 18.9301 17.0403V165.201C18.9301 167.299 20.6205 169 22.7057 169H186.972C189.058 169 190.748 167.299 190.748 165.201V17.0403C190.748 14.9424 189.058 13.2417 186.972 13.2417Z" fill="#F9E0C0" stroke="#442DD2" stroke-width="0.404531" stroke-miterlimit="10"/>
<path d="M86.1575 13.258V64.0885H86.1683C86.5567 64.0885 86.7562 64.3978 86.9612 64.718C87.177 65.0545 87.4035 65.4072 87.8674 65.4072C88.3312 65.4072 88.5524 65.0545 88.7735 64.718C88.9839 64.3924 89.178 64.0885 89.5664 64.0885C89.9547 64.0885 90.1543 64.3924 90.3593 64.718C90.575 65.0545 90.8016 65.4072 91.2654 65.4072C91.7293 65.4072 91.9504 65.0545 92.1716 64.718C92.3819 64.3924 92.5761 64.0885 92.9644 64.0885C93.3528 64.0885 93.5524 64.3924 93.7573 64.718C93.9731 65.0545 94.1996 65.4072 94.6635 65.4072C95.1274 65.4072 95.3485 65.0545 95.5696 64.718C95.78 64.3924 95.9742 64.0885 96.3625 64.0885C96.7509 64.0885 96.945 64.3924 97.1554 64.718C97.3712 65.0545 97.5977 65.4072 98.0615 65.4072C98.5254 65.4072 98.7466 65.0545 98.9677 64.718C99.1781 64.3924 99.3722 64.0885 99.7606 64.0885C100.149 64.0885 100.348 64.3924 100.553 64.718C100.769 65.0545 100.996 65.4072 101.46 65.4072C101.923 65.4072 102.145 65.0545 102.366 64.718C102.576 64.3924 102.77 64.0885 103.159 64.0885C103.547 64.0885 103.747 64.3924 103.952 64.718C104.167 65.0545 104.394 65.4072 104.858 65.4072C105.322 65.4072 105.543 65.0545 105.764 64.718C105.974 64.3924 106.168 64.0885 106.557 64.0885C106.945 64.0885 107.145 64.3924 107.35 64.718C107.565 65.0545 107.792 65.4072 108.256 65.4072C108.72 65.4072 108.941 65.0545 109.162 64.718C109.372 64.3924 109.566 64.0885 109.955 64.0885C110.343 64.0885 110.543 64.3924 110.748 64.718C110.963 65.0545 111.19 65.4072 111.654 65.4072C112.118 65.4072 112.339 65.0545 112.56 64.718C112.77 64.3924 112.964 64.0885 113.353 64.0885C113.741 64.0885 113.941 64.3924 114.146 64.718C114.361 65.0545 114.588 65.4072 115.052 65.4072C115.516 65.4072 115.737 65.0545 115.958 64.718C116.168 64.3924 116.363 64.0885 116.751 64.0885C117.139 64.0885 117.339 64.3924 117.544 64.718C117.76 65.0545 117.986 65.4072 118.45 65.4072C118.914 65.4072 119.135 65.0545 119.356 64.718C119.566 64.3924 119.761 64.0885 120.149 64.0885C120.537 64.0885 120.737 64.3924 120.942 64.718C121.158 65.0545 121.384 65.4072 121.848 65.4072C122.312 65.4072 122.533 65.0545 122.754 64.718C122.965 64.3924 123.159 64.0885 123.547 64.0885V13.2526H86.1791L86.1575 13.258Z" fill="#FCFBFB" stroke="#260071" stroke-width="0.404531" stroke-miterlimit="10"/>
<path d="M50.9688 138.074C51.1145 135.828 50.8717 133.418 50.958 131.155C50.8178 130.895 50.629 130.661 50.3108 130.651H43.6927L42.6516 133.494L44.9656 133.825L40.3377 140.478L41.3302 135.491L39.0163 136.159L40.5049 130.651H33.6657C33.3636 130.683 33.1479 130.895 33.0184 131.155C33.0939 133.402 32.8674 135.779 33.0076 138.014C33.2288 141.683 35.7261 144.825 39.1403 145.997C39.3075 146.057 40.1597 146.241 40.1867 146.333V152.948H36.8857C35.9526 152.948 34.89 153.589 34.3992 154.376C34.0216 154.978 33.5362 156.351 34.3722 156.747L49.4586 156.763C50.1328 156.6 50.095 155.987 49.9764 155.434C49.6851 154.099 48.6171 153.16 47.2741 153.008H43.7142L43.7682 146.306C47.6571 145.547 50.7153 142.079 50.9742 138.08L50.9688 138.074Z" fill="#9D836D"/>
<path d="M83.396 153.507H60.7422C59.8485 153.507 59.1241 154.236 59.1241 155.135C59.1241 156.034 59.8485 156.763 60.7422 156.763H83.396C84.2896 156.763 85.0141 156.034 85.0141 155.135C85.0141 154.236 84.2896 153.507 83.396 153.507Z" fill="#9D836D"/>
<path d="M70.2297 136.869L65.3214 132.029L60.5102 136.967" stroke="#9D836D" stroke-width="2.13593" stroke-linecap="round" stroke-linejoin="round"/>
<path d="M65.3375 133.472L65.4993 149.763" stroke="#9D836D" stroke-width="2.13593" stroke-linecap="round" stroke-linejoin="round"/>
<path d="M83.6276 136.869L78.7193 132.029L73.9081 136.967" stroke="#9D836D" stroke-width="2.13593" stroke-linecap="round" stroke-linejoin="round"/>
<path d="M78.7357 133.472L78.8975 149.763" stroke="#9D836D" stroke-width="2.13593" stroke-linecap="round" stroke-linejoin="round"/>
<path d="M33.9787 117.589L31.1146 112.672C30.9258 112.276 30.9096 111.94 31.0822 111.527L32.49 109.047L31.0229 108.163L35.9905 108.071L38.3692 112.439L36.8266 111.598L34.3401 115.912C34.2214 116.151 33.9733 116.813 33.9733 117.057V117.589H33.9787Z" fill="#006B6B"/>
<path d="M45.0521 114.783H50.2031C50.5969 114.74 50.9636 114.658 51.3196 114.485C51.3736 114.458 51.681 114.251 51.6972 114.268L48.8223 119.303C48.6389 119.575 48.1912 119.857 47.8622 119.857H45.0521V121.566L42.4901 117.312L45.0521 113.041V114.783Z" fill="#006B6B"/>
<path d="M48.0724 103.447L49.5611 102.579L49.5773 102.628L47.1716 106.958L42.231 106.877L43.7035 106.03V105.96L41.1145 101.456C40.7531 100.94 40.5265 100.837 40.0249 100.517C39.9925 100.495 39.9656 100.517 39.9818 100.446C40.0303 100.446 40.0735 100.484 40.1274 100.479C42.026 100.376 43.9624 100.452 45.8664 100.484C46.1738 100.544 46.4327 100.701 46.6215 100.951L48.0724 103.447Z" fill="#006B6B"/>
<path d="M41.1093 114.751V119.803L40.996 119.852C39.6584 119.787 38.2506 119.933 36.9183 119.852C35.338 119.759 34.2376 118.441 34.6098 116.845C34.7878 116.075 35.3056 115.44 35.6454 114.745H41.1093V114.751Z" fill="#006B6B"/>
<path d="M34.5289 105.509L34.5451 105.385L36.6864 101.689C37.312 100.729 38.5472 100.414 39.5882 100.853C40.6292 101.293 41.0122 102.405 41.5839 103.306L38.8762 108.022L34.5289 105.504V105.509Z" fill="#006B6B"/>
<path d="M45.7317 109.493L50.0791 107.007L52.188 110.632C52.6842 111.495 52.5763 112.521 51.9722 113.297C51.0715 114.458 49.7392 114.235 48.4286 114.219L45.7371 109.493H45.7317Z" fill="#006B6B"/>
<path d="M32.3007 2.75293C48.5845 2.75293 61.8307 16.0773 61.8309 32.4639C61.8309 48.8506 48.5847 62.1758 32.3007 62.1758C16.0217 62.1758 2.77039 48.8506 2.77039 32.4639C2.77063 16.0773 16.0168 2.75295 32.3007 2.75293Z" fill="#260071" stroke="#8779FF" stroke-width="0.505228"/>
<path d="M32.3096 0.25293C50.0132 0.253033 64.3662 14.6908 64.3662 32.5059C64.3662 50.3209 50.0132 64.7587 32.3096 64.7588C14.6059 64.7588 0.252948 50.3209 0.25293 32.5059C0.25293 14.6908 14.6059 0.25293 32.3096 0.25293ZM32.3096 4.83008C17.1381 4.83008 4.7998 17.2458 4.7998 32.5059C4.79982 47.7659 17.1381 60.1816 32.3096 60.1816C47.481 60.1815 59.8193 47.7658 59.8193 32.5059C59.8193 17.2459 47.481 4.83018 32.3096 4.83008Z" fill="#E4DBFA" stroke="#8779FF" stroke-width="0.505228"/>
<path d="M33.7969 24.0514H37.045C37.3849 24.0514 37.5549 24.0514 37.7148 24.0898C37.8566 24.1239 37.9922 24.18 38.1165 24.2562C38.2567 24.3422 38.3769 24.4623 38.6173 24.7027L44.2633 30.3487C44.5036 30.5891 44.6238 30.7092 44.7098 30.8495C44.7859 30.9738 44.8421 31.1094 44.8761 31.2512C44.9145 31.4111 44.9145 31.5811 44.9145 31.921V35.8639C44.9145 36.5115 44.9145 36.8352 44.8088 37.0906C44.6677 37.4311 44.3972 37.7017 44.0567 37.8427C43.8013 37.9485 43.4775 37.9485 42.83 37.9485M35.8815 37.9485H33.7969M33.7969 37.9485V24.3294C33.7969 22.7728 33.7969 21.9945 33.494 21.3999C33.2275 20.8769 32.8023 20.4517 32.2793 20.1853C31.6848 19.8823 30.9065 19.8823 29.3498 19.8823H21.5675C20.0109 19.8823 19.2326 19.8823 18.638 20.1853C18.115 20.4517 17.6898 20.8769 17.4234 21.3999C17.1204 21.9945 17.1204 22.7728 17.1204 24.3294V35.1691C17.1204 36.7041 18.3648 37.9485 19.8998 37.9485M33.7969 37.9485H28.2381M28.2381 37.9485C28.2381 40.251 26.3715 42.1176 24.069 42.1176C21.7664 42.1176 19.8998 40.251 19.8998 37.9485M28.2381 37.9485C28.2381 35.646 26.3715 33.7794 24.069 33.7794C21.7664 33.7794 19.8998 35.646 19.8998 37.9485M42.83 38.6434C42.83 40.5621 41.2745 42.1176 39.3557 42.1176C37.4369 42.1176 35.8815 40.5621 35.8815 38.6434C35.8815 36.7246 37.4369 35.1691 39.3557 35.1691C41.2745 35.1691 42.83 36.7246 42.83 38.6434Z" stroke="#A398FF" stroke-width="1.5" stroke-linecap="round" stroke-linejoin="round"/>
<path d="M174.571 38.2351H213.465C219.876 38.2351 225.074 43.4326 225.074 49.8439V70.1769C225.074 76.4859 219.96 81.6002 213.651 81.6002H213.063C207.078 81.6002 202.227 76.7492 202.227 70.765C202.227 64.7399 207.143 59.8721 213.167 59.9304L250.609 60.2927C257.205 60.3566 262.517 65.7211 262.517 72.3167V107.864C262.517 114.578 257.019 119.991 250.306 119.887L225.074 119.493" stroke="#260071" stroke-width="1.15994" stroke-linejoin="bevel" stroke-dasharray="3.61 3.61"/>
<rect x="134.945" y="28.6555" width="37.4943" height="26.0571" rx="4.21821" fill="white" fill-opacity="0.6"/>
<rect x="134.945" y="28.6555" width="37.4943" height="26.0571" rx="4.21821" stroke="#260071" stroke-width="0.783712" stroke-dasharray="3.92 3.92"/>
<rect x="138.033" y="31.119" width="31.7414" height="21.6098" rx="3.57986" fill="#FF6600"/>
<path d="M144.271 40.9126C143.186 40.9126 142.398 41.7011 142.398 42.7196C142.398 43.7381 143.186 44.5267 144.271 44.5267C145.355 44.5267 146.143 43.7381 146.143 42.7196C146.143 41.7011 145.355 40.9126 144.271 40.9126ZM144.271 43.8367C143.646 43.8367 143.186 43.3767 143.186 42.7196C143.186 42.0625 143.646 41.6025 144.271 41.6025C144.895 41.6025 145.355 42.0625 145.355 42.7196C145.355 43.3767 144.895 43.8367 144.271 43.8367ZM150.995 40.9126C150.075 40.9126 149.779 41.6025 149.779 41.6025H149.746C149.746 41.6025 149.516 40.9126 148.662 40.9126C147.907 40.9126 147.611 41.5368 147.611 41.5368H147.578L147.545 41.0111H146.822V44.4281H147.578V42.5882C147.578 41.9968 148.005 41.6025 148.465 41.6025C148.892 41.6025 149.155 41.8326 149.155 42.3582V44.4281H149.911V42.5882C149.911 41.9968 150.338 41.6025 150.798 41.6025C151.225 41.6025 151.488 41.8326 151.488 42.3582V44.4281H152.243V42.3253C152.243 41.4382 151.751 40.9126 150.995 40.9126ZM155.102 40.9126C154.281 40.9126 153.985 41.5368 153.985 41.5368H153.952L153.919 41.0111H153.197V44.4281H153.952V42.5882C153.952 42.0296 154.412 41.6025 154.938 41.6025C155.398 41.6025 155.694 41.8654 155.694 42.3582V44.4281H156.449V42.3253C156.449 41.4382 155.924 40.9126 155.102 40.9126ZM157.402 44.4281H158.158V41.0111H157.402L157.402 44.4281ZM157.777 39.4341C157.534 39.4341 157.337 39.5983 157.337 39.8809C157.337 40.1569 157.534 40.3212 157.777 40.3212C158.027 40.3212 158.224 40.1569 158.224 39.8809C158.224 39.5983 158.027 39.4341 157.777 39.4341ZM160.589 43.3438H160.557L159.538 41.0111H158.75L160.228 44.4281H160.918L162.396 41.0111H161.608L160.589 43.3438ZM164.189 40.9126C163.321 40.9126 162.825 41.3426 162.825 41.3426V42.0326H162.923C162.923 42.0326 163.334 41.6025 164.09 41.6025C164.616 41.6025 164.911 41.8654 164.911 42.3253V42.621C164.911 42.621 164.55 42.3911 163.926 42.3911C163.104 42.3911 162.644 42.851 162.644 43.495C162.644 44.0667 163.104 44.5267 163.794 44.5267C164.648 44.5267 164.878 43.9024 164.878 43.9024H164.911L164.944 44.4281H165.667V42.2924C165.667 41.4383 165.141 40.9126 164.189 40.9126ZM163.959 43.8695C163.63 43.8695 163.433 43.7053 163.433 43.4096C163.433 43.1138 163.663 42.9168 164.057 42.9168C164.648 42.9168 164.911 43.1467 164.911 43.1467C164.911 43.1467 164.747 43.8695 163.959 43.8695Z" fill="white"/>
<rect x="70.3443" y="93.046" width="182.798" height="52.3443" rx="7.16263" fill="#F0EBFF"/>
<rect x="70.3443" y="93.046" width="182.798" height="52.3443" rx="7.16263" stroke="#260071" stroke-width="0.753961"/>
<rect x="75.3215" y="112.228" width="13.9804" height="13.9804" rx="2.75372" fill="#E4DBFA"/>
<rect x="75.3215" y="112.228" width="13.9804" height="13.9804" rx="2.75372" stroke="#F5F1FF" stroke-width="0.423649"/>
<path d="M83.2649 121.124L81.3585 119.218L83.2649 117.312" stroke="#260071" stroke-width="0.847299" stroke-linecap="round" stroke-linejoin="round"/>
<g clip-path="url(#clip0_2575_1638)">
<rect x="87.8551" y="105.647" width="45.2377" height="27.1426" rx="4.52377" fill="#F6F8FC"/>
<g clip-path="url(#clip1_2575_1638)">
<path d="M123.271 119.716C123.096 119.608 122.9 119.527 122.717 119.461C122.381 119.344 122.221 119.257 122.221 119.066C122.221 118.904 122.373 118.795 122.585 118.795C122.802 118.795 123.02 118.873 123.196 119.049L123.767 118.434C123.431 118.119 123.073 117.945 122.586 117.945C122.074 117.945 121.385 118.348 121.385 119.094C121.385 119.346 121.471 119.55 121.605 119.715L123.271 119.716ZM124.544 119.716H125.423V118.787H126.227V118.019H125.423V116.702H124.544V118.019H123.886V118.787H124.544V119.716ZM127.34 118.019H126.461V119.715H127.34V118.019ZM120.35 119.935C120.326 120.522 119.91 120.942 119.328 120.942C118.746 120.942 118.33 120.522 118.306 119.935H117.426C117.454 120.964 118.285 121.785 119.327 121.785C120.371 121.785 121.201 120.964 121.23 119.935H120.35ZM123.515 119.935H121.792C121.973 120.061 122.263 120.206 122.445 120.277C122.804 120.415 122.941 120.49 122.941 120.667C122.941 120.839 122.745 120.935 122.511 120.935C122.219 120.935 122.014 120.826 121.808 120.643L121.222 121.221C121.567 121.565 121.91 121.785 122.511 121.785C123.156 121.785 123.82 121.329 123.82 120.643C123.822 120.336 123.698 120.108 123.515 119.935ZM124.544 121.711H125.423V119.935H124.544V121.711ZM126.461 121.711H127.34V119.935H126.461V121.711ZM114.197 119.716C114.246 119.16 114.667 118.787 115.223 118.787C115.779 118.787 116.199 119.171 116.256 119.716H117.138C117.075 118.699 116.313 117.945 115.296 117.945C114.808 117.945 114.422 118.126 114.197 118.364H114.183V118.018H113.304V119.715L114.197 119.716ZM116.261 119.935C116.237 120.522 115.806 120.942 115.223 120.942C114.64 120.942 114.212 120.53 114.191 119.935H113.303V123.395H114.182V121.373H114.196C114.433 121.614 114.777 121.784 115.263 121.784C116.307 121.784 117.114 120.997 117.14 119.934L116.261 119.935ZM118.31 119.716C118.367 119.171 118.772 118.787 119.327 118.787C119.883 118.787 120.288 119.171 120.345 119.716H121.226C121.159 118.725 120.344 117.945 119.327 117.945C118.311 117.945 117.497 118.724 117.429 119.716H118.31ZM126.329 117.506C126.434 117.589 126.526 117.67 126.623 117.67C126.666 117.67 126.7 117.659 126.72 117.643C126.518 117.582 126.389 117.409 126.389 117.258C126.389 117.114 126.488 117.001 126.645 117.001C126.74 117.001 126.819 117.044 126.87 117.101C126.931 116.858 127.07 116.724 127.227 116.724C127.371 116.724 127.449 116.838 127.449 116.987C127.449 117.185 127.263 117.494 127.049 117.614C127.072 117.646 127.113 117.669 127.169 117.669C127.357 117.669 127.529 117.498 127.638 117.369C127.66 117.343 127.687 117.334 127.713 117.334C127.761 117.334 127.801 117.37 127.801 117.423C127.801 117.444 127.794 117.467 127.777 117.487C127.673 117.611 127.454 117.851 127.173 117.851C127.049 117.851 126.957 117.793 126.904 117.713C126.834 117.793 126.732 117.851 126.617 117.851C126.498 117.851 126.37 117.765 126.262 117.682C126.207 117.641 126.158 117.6 126.118 117.568C126.077 117.537 126.049 117.519 126.035 117.518C125.966 117.518 125.934 117.476 125.934 117.426C125.934 117.38 125.972 117.336 126.035 117.336C126.08 117.336 126.128 117.358 126.178 117.39C126.226 117.423 126.277 117.464 126.329 117.506ZM126.644 117.184C126.596 117.184 126.569 117.219 126.569 117.265C126.569 117.382 126.688 117.457 126.823 117.479C126.825 117.466 126.827 117.452 126.827 117.437C126.827 117.303 126.744 117.184 126.644 117.184ZM127.205 116.902C127.14 116.902 127.011 117.009 127.007 117.435C127.141 117.331 127.269 117.112 127.269 116.983C127.269 116.932 127.253 116.902 127.205 116.902Z" fill="#FF7D00"/>
<path d="M96.5209 119.715C96.3508 119.614 96.1647 119.537 95.989 119.473C95.6494 119.354 95.4721 119.266 95.4721 119.075C95.4721 118.912 95.6788 118.802 95.8562 118.802C96.0923 118.802 96.3436 118.898 96.5209 119.075L97.0967 118.454C96.7571 118.137 96.373 117.945 95.8562 117.945C95.3393 117.945 94.6451 118.351 94.6451 119.104C94.6451 119.35 94.7262 119.551 94.855 119.715H96.5209Z" fill="#005DC0"/>
<path d="M98.5816 119.716V119.569C98.5816 119.178 98.8472 118.794 99.357 118.794C99.7999 118.794 100.058 119.133 100.058 119.569V119.716H100.944V119.54C100.944 119.164 101.217 118.794 101.719 118.794C102.162 118.794 102.421 119.133 102.421 119.569V119.716H103.307V119.51C103.307 118.514 102.834 117.945 101.911 117.945C101.246 117.945 100.834 118.322 100.686 118.514H100.671C100.479 118.174 100.102 117.945 99.6369 117.945C99.1128 117.945 98.7582 118.189 98.596 118.366H98.5809V118.019H97.6958V119.716H98.5816V119.716Z" fill="#005DC0"/>
<path d="M111.186 119.716H112.072V118.794H112.884V118.019H112.072V116.69H111.186V118.019H110.522V118.794H111.186V119.716Z" fill="#005DC0"/>
<path d="M109.027 119.716C109.045 119.329 109.3 118.83 109.911 118.83H110.169V117.945C109.556 117.945 109.202 118.174 109.039 118.403H109.024V118.019H108.138V119.716H109.027V119.716Z" fill="#005DC0"/>
<path d="M104.659 119.715C104.722 119.174 105.127 118.794 105.683 118.794C106.239 118.794 106.638 119.174 106.7 119.715H107.603V118.019H106.717V118.351H106.702C106.399 118.1 106.037 117.945 105.609 117.945C104.589 117.945 103.837 118.722 103.769 119.715H104.659Z" fill="#005DC0"/>
<path d="M96.8102 119.934H95.0759C95.2667 120.084 95.4973 120.189 95.7152 120.263C96.0325 120.367 96.217 120.455 96.217 120.655C96.217 120.803 95.9959 120.927 95.7812 120.927C95.4862 120.927 95.2795 120.817 95.0727 120.632L94.4819 121.215C94.8286 121.562 95.1761 121.784 95.7812 121.784C96.3426 121.784 97.1028 121.377 97.1028 120.632C97.1036 120.333 96.9859 120.108 96.8102 119.934Z" fill="#005DC0"/>
<path d="M109.025 119.934H108.139V121.71H109.025V119.934Z" fill="#005DC0"/>
<path d="M112.073 119.934H111.187V121.71H112.073V119.934Z" fill="#005DC0"/>
<path d="M98.5816 119.934H97.6958V121.71H98.5816V119.934Z" fill="#005DC0"/>
<path d="M106.706 119.934C106.676 120.518 106.266 120.935 105.683 120.935C105.101 120.935 104.683 120.518 104.652 119.934H103.765C103.798 120.965 104.562 121.784 105.609 121.784C106.038 121.784 106.399 121.629 106.702 121.385H106.717V121.71H107.603V119.934H106.706Z" fill="#005DC0"/>
<path d="M100.944 119.934H100.058V121.71H100.944V119.934Z" fill="#005DC0"/>
<path d="M103.306 119.934H102.421V121.71H103.306V119.934Z" fill="#005DC0"/>
</g>
<rect x="139.588" y="103.547" width="44.3097" height="31.3416" rx="4.66296" stroke="url(#paint0_linear_2575_1638)" stroke-width="0.927952"/>
<rect x="141.688" y="105.647" width="40.1107" height="27.1426" rx="4.52377" fill="#FF6600"/>
<path d="M149.351 118.122C147.981 118.122 146.985 119.119 146.985 120.406C146.985 121.693 147.981 122.689 149.351 122.689C150.722 122.689 151.718 121.693 151.718 120.406C151.718 119.119 150.722 118.122 149.351 118.122ZM149.351 121.817C148.563 121.817 147.981 121.236 147.981 120.406C147.981 119.575 148.563 118.994 149.351 118.994C150.14 118.994 150.722 119.575 150.722 120.406C150.722 121.236 150.14 121.817 149.351 121.817ZM157.849 118.122C156.686 118.122 156.313 118.994 156.313 118.994H156.271C156.271 118.994 155.98 118.122 154.901 118.122C153.946 118.122 153.572 118.911 153.572 118.911H153.531L153.489 118.247H152.576V122.565H153.531V120.24C153.531 119.492 154.071 118.994 154.652 118.994C155.192 118.994 155.524 119.285 155.524 119.949V122.565H156.479V120.24C156.479 119.492 157.018 118.994 157.6 118.994C158.139 118.994 158.471 119.285 158.471 119.949V122.565H159.426V119.908C159.426 118.787 158.804 118.122 157.849 118.122ZM163.039 118.122C162.001 118.122 161.627 118.911 161.627 118.911H161.586L161.544 118.247H160.631V122.565H161.586V120.24C161.586 119.534 162.167 118.994 162.831 118.994C163.413 118.994 163.786 119.326 163.786 119.949V122.565H164.741V119.908C164.741 118.787 164.077 118.122 163.039 118.122ZM165.946 122.565H166.901V118.247H165.946L165.946 122.565ZM166.419 116.254C166.112 116.254 165.863 116.462 165.863 116.819C165.863 117.167 166.112 117.375 166.419 117.375C166.735 117.375 166.984 117.167 166.984 116.819C166.984 116.462 166.735 116.254 166.419 116.254ZM169.973 121.195H169.932L168.644 118.247H167.648L169.516 122.565H170.388L172.257 118.247H171.26L169.973 121.195ZM174.521 118.122C173.425 118.122 172.798 118.666 172.798 118.666V119.538H172.922C172.922 119.538 173.442 118.994 174.397 118.994C175.061 118.994 175.435 119.326 175.435 119.908V120.281C175.435 120.281 174.978 119.991 174.189 119.991C173.151 119.991 172.57 120.572 172.57 121.386C172.57 122.108 173.151 122.689 174.023 122.689C175.102 122.689 175.393 121.901 175.393 121.901H175.435L175.476 122.565H176.389V119.866C176.389 118.787 175.725 118.122 174.521 118.122ZM174.231 121.859C173.815 121.859 173.566 121.651 173.566 121.278C173.566 120.904 173.857 120.655 174.355 120.655C175.102 120.655 175.435 120.946 175.435 120.946C175.435 120.946 175.227 121.859 174.231 121.859Z" fill="white"/>
<rect x="190.394" y="105.647" width="45.2377" height="27.1426" rx="4.52377" fill="#9339F2"/>
<g clip-path="url(#clip2_2575_1638)">
<path d="M212.666 120.196V121.928H211.284V120.397C211.284 119.915 211.116 119.696 210.734 119.696C210.34 119.696 210.134 119.941 210.134 120.415V121.928H208.759V118.803H209.741L210.097 119.44C210.34 118.959 210.771 118.709 211.359 118.709C212.216 118.709 212.666 119.221 212.666 120.196Z" fill="white"/>
<path d="M213.227 117.406H214.64V118.415H213.227V117.406ZM213.246 118.802H214.621V121.928H213.246V118.802Z" fill="white"/>
<path d="M217.803 118.709C217.296 118.709 216.859 118.896 216.597 119.271V119.273L216.596 119.271L216.334 118.803H215.259V122.937H216.633V121.547C216.921 121.86 217.271 122.022 217.759 122.022C218.696 122.022 219.328 121.366 219.328 120.34C219.328 119.359 218.721 118.709 217.803 118.709ZM217.265 121.159C216.864 121.159 216.608 120.866 216.608 120.415V120.303C216.608 119.822 216.852 119.565 217.258 119.565C217.671 119.565 217.903 119.846 217.903 120.34C217.903 120.846 217.665 121.159 217.265 121.159Z" fill="white"/>
<path d="M221.552 118.707C220.45 118.707 219.707 119.133 219.621 119.871H221.019C221.05 119.627 221.233 119.495 221.544 119.495C221.832 119.495 222.009 119.61 222.009 119.854V119.971L220.902 120.078C220.394 120.134 220.069 120.226 219.856 120.383C219.638 120.54 219.531 120.765 219.531 121.059C219.531 121.653 220.013 122.02 220.815 122.02C221.412 122.02 221.898 121.799 222.068 121.445V121.442L222.069 121.443C222.07 121.443 222.07 121.441 222.07 121.44V121.446L222.339 121.928H223.396V120.072C223.396 119.147 222.838 118.707 221.552 118.707ZM222.039 120.748C222.039 121.048 221.77 121.252 221.37 121.252C221.1 121.252 220.933 121.135 220.933 120.947C220.933 120.765 221.09 120.659 221.44 120.608L222.039 120.54V120.748Z" fill="white"/>
<path d="M225.782 120.71L225.286 121.159V121.928H223.911V117.396H225.286V119.897L226.343 118.802H227.993L226.851 119.894L228.018 121.928H226.499L225.782 120.71Z" fill="white"/>
<path d="M204.016 117.406V121.928H201.434L198.82 117.406H200.37L202.619 121.322V117.406H204.016Z" fill="white"/>
<path d="M208.367 120.389C208.367 119.343 207.711 118.699 206.522 118.664C206.488 118.662 206.452 118.662 206.416 118.662C206.307 118.662 206.197 118.668 206.097 118.682C205.076 118.785 204.435 119.405 204.435 120.332C204.435 121.364 205.387 121.975 206.486 121.975C206.964 121.975 207.417 121.917 207.936 121.519C207.984 121.483 208.033 121.443 208.082 121.4L207.594 120.602C207.559 120.641 207.521 120.684 207.478 120.727C207.291 120.91 207.018 121.098 206.613 121.098C206.175 121.098 205.786 120.836 205.735 120.525H208.367L208.367 120.389ZM205.735 119.869C205.766 119.532 205.999 119.388 206.397 119.388C206.792 119.388 207.03 119.574 207.03 119.869H205.735Z" fill="white"/>
</g>
</g>
<rect x="-0.211825" y="0.211825" width="13.9804" height="13.9804" rx="2.75372" transform="matrix(-1 0 0 1 247.953 112.016)" fill="#E4DBFA"/>
<rect x="-0.211825" y="0.211825" width="13.9804" height="13.9804" rx="2.75372" transform="matrix(-1 0 0 1 247.953 112.016)" stroke="#F5F1FF" stroke-width="0.423649"/>
<path d="M240.222 121.124L242.128 119.218L240.222 117.312" stroke="#260071" stroke-width="0.847299" stroke-linecap="round" stroke-linejoin="round"/>
<defs>
<linearGradient id="paint0_linear_2575_1638" x1="151.357" y1="99.6025" x2="204.869" y2="160.769" gradientUnits="userSpaceOnUse">
<stop stop-color="#5C14EB"/>
<stop offset="1" stop-color="#340B85"/>
</linearGradient>
<clipPath id="clip0_2575_1638">
<rect x="94.6407" y="103.083" width="134.205" height="32.2695" rx="2.56347" fill="white"/>
</clipPath>
<clipPath id="clip1_2575_1638">
<rect width="34.5027" height="7.5766" fill="white" transform="translate(93.8906 116.254)"/>
</clipPath>
<clipPath id="clip2_2575_1638">
<rect width="29.4045" height="5.563" fill="white" transform="translate(198.692 117.385)"/>
</clipPath>
</defs>
</svg>
