<?xml version="1.0" encoding="utf-8"?>
<!-- Generator: Adobe Illustrator 21.0.2, SVG Export Plug-In . SVG Version: 6.00 Build 0)  -->
<svg version="1.1" id="Layer_1" xmlns="http://www.w3.org/2000/svg" xmlns:xlink="http://www.w3.org/1999/xlink" x="0px" y="0px"
	 viewBox="0 0 600 136" style="enable-background:new 0 0 600 136;" xml:space="preserve">
<style type="text/css">
	.st0{fill:#AF174A;}
	.st1{fill:#FFFFFF;}
	.st2{opacity:0.15;fill:#FFFFFF;enable-background:new    ;}
	.st3{opacity:0.1;fill:#FFFFFF;enable-background:new    ;}
	.st4{fill:none;}
	.st5{font-family:'Poppins-Medium';}
	.st6{font-size:126.5345px;}
</style>
<polygon class="st0" points="361.1,24.1 361,24 361,24.1 "/>
<g>
	<polygon class="st1" points="95,51.5 81.8,28.7 69,51.5 59.4,67.9 72.5,91 81.8,74.3 91.5,91 104.6,67.9 	"/>
	<rect x="8" y="91" class="st1" width="148" height="22.8"/>
	<polygon class="st2" points="103,65.3 91.5,91 91.5,91 109.8,77.2 	"/>
	<polygon class="st1" points="104.6,67.9 91.5,91 117.8,91 156,24.2 129.7,24.2 	"/>
	<polygon class="st3" points="61,65.3 72.5,91 72.5,91 53.9,77.2 	"/>
	<polygon class="st1" points="46.2,91 72.5,91 59.4,67.9 34.3,24.2 8,24.2 	"/>
</g>
<rect x="169.8" y="20.4" class="st4" width="448.2" height="97.9"/>
<text transform="matrix(1 0 0 1 169.8706 113.7402)" class="st1 st5 st6">K</text>
<text transform="matrix(1 0 0 1 244.0356 113.7402)" class="st1 st5 st6">eweb</text>
</svg>
