<?xml version="1.0" encoding="utf-8"?>
<!-- Generator: Adobe Illustrator 21.0.2, SVG Export Plug-In . SVG Version: 6.00 Build 0)  -->
<svg version="1.1" id="Layer_1" xmlns="http://www.w3.org/2000/svg" xmlns:xlink="http://www.w3.org/1999/xlink" x="0px" y="0px"
	 viewBox="0 0 194 40" style="enable-background:new 0 0 194 40;" xml:space="preserve">
<style type="text/css">
	.st0{fill:#AF174A;}
	.st1{fill:url(#SVGID_1_);}
	.st2{fill:url(#SVGID_2_);}
	.st3{opacity:0.15;enable-background:new    ;}
	.st4{fill:url(#SVGID_3_);}
	.st5{opacity:0.1;enable-background:new    ;}
	.st6{fill:url(#SVGID_4_);}
	.st7{fill:none;}
	.st8{enable-background:new    ;}
	.st9{fill:#003366;}
</style>
<polygon class="st0" points="168.1,-54.4 168,-54.5 168,-54.4 "/>
<g>
	
		<linearGradient id="SVGID_1_" gradientUnits="userSpaceOnUse" x1="27.8193" y1="24.2617" x2="36.4272" y2="19.723" gradientTransform="matrix(1 0 0 -1 0 41)">
		<stop  offset="0" style="stop-color:#003366"/>
		<stop  offset="1" style="stop-color:#0276FD"/>
	</linearGradient>
	<polygon class="st1" points="35.6,15.4 31.5,8.3 27.5,15.4 24.5,20.5 28.6,27.6 31.5,22.5 34.5,27.6 38.6,20.5 	"/>
	
		<linearGradient id="SVGID_2_" gradientUnits="userSpaceOnUse" x1="10.6424" y1="17.3412" x2="49.065" y2="3.6468" gradientTransform="matrix(1 0 0 -1 0 41)">
		<stop  offset="0" style="stop-color:#003366"/>
		<stop  offset="1" style="stop-color:#0276FD"/>
	</linearGradient>
	<rect x="8.5" y="27.6" class="st2" width="46.1" height="7.1"/>
	<polygon class="st3" points="38.1,19.7 34.5,27.6 34.5,27.6 40.2,23.4 	"/>
	
		<linearGradient id="SVGID_3_" gradientUnits="userSpaceOnUse" x1="40.9832" y1="26.4737" x2="48.6521" y2="20.6829" gradientTransform="matrix(1 0 0 -1 0 41)">
		<stop  offset="0" style="stop-color:#003366"/>
		<stop  offset="1" style="stop-color:#0276FD"/>
	</linearGradient>
	<polygon class="st4" points="38.6,20.5 34.5,27.6 42.7,27.6 54.6,6.9 46.4,6.9 	"/>
	<polygon class="st5" points="25,19.7 28.6,27.6 28.6,27.6 22.8,23.4 	"/>
	
		<linearGradient id="SVGID_4_" gradientUnits="userSpaceOnUse" x1="12.8684" y1="26.8101" x2="23.7457" y2="21.0194" gradientTransform="matrix(1 0 0 -1 0 41)">
		<stop  offset="0" style="stop-color:#003366"/>
		<stop  offset="1" style="stop-color:#0276FD"/>
	</linearGradient>
	<polygon class="st6" points="20.4,27.6 28.6,27.6 24.5,20.5 16.7,6.9 8.5,6.9 	"/>
</g>
<g>
	<rect x="58.9" y="5.6" class="st7" width="132.4" height="30.5"/>
</g>
<g class="st8">
	<path class="st9" d="M70.3,20.6l12.3,14.1h-5.5l-11-12.9v12.9h-4.5V6.9h4.5v12.7l11-12.7h5.4L70.3,20.6z"/>
</g>
<g class="st8">
	<path class="st9" d="M104.7,24.7H88c0.1,2.2,0.7,3.9,1.9,5c1.2,1.1,2.6,1.6,4.3,1.6c1.5,0,2.8-0.4,3.8-1.1c1-0.8,1.7-1.8,1.9-3h4.8
		c-0.3,1.5-0.9,2.9-1.8,4.1c-0.9,1.2-2.1,2.1-3.6,2.8c-1.5,0.7-3.1,1-4.9,1c-2.1,0-4-0.4-5.6-1.3c-1.6-0.9-2.9-2.2-3.8-3.9
		c-0.9-1.7-1.4-3.7-1.4-6c0-2.3,0.5-4.2,1.4-5.9c0.9-1.7,2.2-3,3.8-3.9c1.6-0.9,3.5-1.3,5.6-1.3c2.1,0,4,0.4,5.6,1.3
		c1.6,0.9,2.8,2.1,3.7,3.6c0.9,1.5,1.3,3.3,1.3,5.1C104.9,23.5,104.8,24.2,104.7,24.7z M99.6,19.1c-0.5-1-1.3-1.7-2.2-2.1
		c-0.9-0.5-2-0.7-3.1-0.7c-1.8,0-3.2,0.5-4.4,1.6c-1.2,1.1-1.8,2.7-1.9,4.8h12.3C100.4,21.2,100.2,20.1,99.6,19.1z"/>
	<path class="st9" d="M139.7,13l-6,21.7h-5l-5.4-16.8l-5.4,16.8h-4.9l-6-21.7h4.5l4.1,17.6L121,13h4.7l5.5,17.6l4.1-17.6H139.7z"/>
	<path class="st9" d="M162.8,24.7H146c0.1,2.2,0.7,3.9,1.9,5c1.2,1.1,2.6,1.6,4.3,1.6c1.5,0,2.8-0.4,3.8-1.1c1-0.8,1.7-1.8,1.9-3
		h4.8c-0.3,1.5-0.9,2.9-1.8,4.1c-0.9,1.2-2.1,2.1-3.6,2.8c-1.5,0.7-3.1,1-4.9,1c-2.1,0-4-0.4-5.6-1.3c-1.6-0.9-2.9-2.2-3.8-3.9
		c-0.9-1.7-1.4-3.7-1.4-6c0-2.3,0.5-4.2,1.4-5.9c0.9-1.7,2.2-3,3.8-3.9c1.6-0.9,3.5-1.3,5.6-1.3c2.1,0,4,0.4,5.6,1.3
		c1.6,0.9,2.8,2.1,3.7,3.6c0.9,1.5,1.3,3.3,1.3,5.1C162.9,23.5,162.9,24.2,162.8,24.7z M157.6,19.1c-0.5-1-1.3-1.7-2.2-2.1
		c-0.9-0.5-2-0.7-3.1-0.7c-1.8,0-3.2,0.5-4.4,1.6c-1.2,1.1-1.8,2.7-1.9,4.8h12.3C158.4,21.2,158.2,20.1,157.6,19.1z"/>
	<path class="st9" d="M184.8,14c1.5,0.9,2.6,2.2,3.5,3.9c0.8,1.7,1.3,3.7,1.3,5.9c0,2.3-0.4,4.3-1.3,6c-0.8,1.7-2,3-3.5,3.9
		c-1.5,0.9-3.2,1.3-5.1,1.3c-2,0-3.7-0.5-5-1.5c-1.4-1-2.4-2.3-2.9-3.9v5h-4.5V5.5h4.5V18c0.6-1.6,1.5-2.9,2.9-3.9
		c1.4-1,3.1-1.5,5-1.5C181.6,12.7,183.3,13.1,184.8,14z M174.9,17.5c-1,0.6-1.8,1.4-2.4,2.5c-0.6,1.1-0.9,2.3-0.9,3.8
		c0,1.4,0.3,2.7,0.9,3.8c0.6,1.1,1.4,1.9,2.4,2.5c1,0.6,2.1,0.9,3.4,0.9c2,0,3.6-0.6,4.8-1.9c1.2-1.3,1.8-3,1.8-5.3
		c0-2.2-0.6-4-1.8-5.2c-1.2-1.3-2.8-1.9-4.8-1.9C177.1,16.6,175.9,16.9,174.9,17.5z"/>
</g>
</svg>
